<mxfile host="app.diagrams.net" modified="2023-07-19T08:30:07.658Z" agent="Mozilla/5.0 (X11; Linux x86_64) AppleWebKit/537.36 (KHTML, like Gecko) Chrome/109.0.0.0 Safari/537.36" version="21.3.7" etag="qYoOPBx5prE1W8GJMjws" type="github">
  <diagram name="Page-1" id="69f5A5o5ooHcfKPdVTa9">
    <mxGraphModel>
      <root>
        <mxCell id="0" />
        <mxCell id="1" parent="0" />
      </root>
    </mxGraphModel>
  </diagram>
</mxfile>
